<svg width="50" height="50" viewBox="0 0 50 50" fill="none" xmlns="http://www.w3.org/2000/svg">
<path fill-rule="evenodd" clip-rule="evenodd" d="M12.1663 21.9882C11.888 23.0448 11.7398 24.1542 11.7398 25.2982C11.7398 26.4422 11.888 27.5516 12.1663 28.6082L4.99995 25.2982L12.1663 21.9882Z" fill="black" fill-opacity="0.6"/>
<path fill-rule="evenodd" clip-rule="evenodd" d="M21.3912 37.833L24.7012 44.9994L28.0112 37.833C26.9546 38.1113 25.8452 38.2595 24.7012 38.2595C23.5572 38.2595 22.4478 38.1113 21.3912 37.833Z" fill="black" fill-opacity="0.6"/>
<path fill-rule="evenodd" clip-rule="evenodd" d="M13.4574 31.7502L10.6661 39.3332L18.2491 36.5419C16.2592 35.3976 14.6018 33.7401 13.4574 31.7502Z" fill="black" fill-opacity="0.6"/>
<path fill-rule="evenodd" clip-rule="evenodd" d="M29.5528 35.2097L27.2584 32.9153C26.4551 33.1848 25.5952 33.3309 24.7012 33.3309C20.2648 33.3309 16.6685 29.7345 16.6685 25.2982C16.6685 24.4042 16.8145 23.5443 17.0841 22.741L14.7897 20.4466C14.0717 21.9108 13.6685 23.5574 13.6685 25.2982C13.6685 31.3914 18.608 36.3309 24.7012 36.3309C26.442 36.3309 28.0886 35.9277 29.5528 35.2097Z" fill="black" fill-opacity="0.6"/>
<path d="M35.606 35.6066L14.3928 14.3934" stroke="black" stroke-opacity="0.6" stroke-width="3" stroke-linecap="round"/>
<path d="M33.7856 11.5289V11.5289C34.5316 11.1596 35.0901 10.4963 35.3272 9.6984L35.5346 9.00001L35.7468 9.70042C35.9883 10.4975 36.5487 11.1593 37.2951 11.5289V11.5289V11.5289C36.548 11.9061 35.988 12.5728 35.7453 13.3737L35.5346 14.0693L35.3286 13.3758C35.0904 12.574 34.5322 11.9059 33.7856 11.5289V11.5289Z" fill="black" fill-opacity="0.6"/>
<path d="M36.8505 15.9467V15.9467C37.1743 15.7865 37.4167 15.4986 37.5196 15.1523L37.6096 14.8492L37.7017 15.1532C37.8065 15.4992 38.0497 15.7864 38.3737 15.9467V15.9467V15.9467C38.0494 16.1105 37.8064 16.3998 37.7011 16.7474L37.6096 17.0493L37.5202 16.7483C37.4168 16.4003 37.1746 16.1104 36.8505 15.9467V15.9467Z" fill="black" fill-opacity="0.6"/>
<path fill-rule="evenodd" clip-rule="evenodd" d="M34.8368 29.18L23.001 17.3442C23.0737 11.6741 27.1852 6.97779 32.5906 6.00001C30.2852 8.13425 28.842 11.1866 28.842 14.576C28.842 21.0289 34.0731 26.2599 40.526 26.2599C41.2406 26.2599 41.9402 26.1958 42.6193 26.0729C40.5703 27.9698 37.8401 29.1415 34.8368 29.18Z" fill="black" fill-opacity="0.6"/>
</svg>
