<svg width="20" height="16" viewBox="0 0 20 16" fill="none" xmlns="http://www.w3.org/2000/svg">
<path d="M2 8L7.25 1.93782L7.25 14.0622L2 8Z" fill="#595959"/>
<line x1="19" y1="15" x2="7" y2="15" stroke="#595959" stroke-width="2" stroke-linecap="round"/>
<path d="M7 15L1 8" stroke="#595959" stroke-width="2" stroke-linecap="round"/>
<path d="M7 1L1 8" stroke="#595959" stroke-width="2" stroke-linecap="round"/>
<path fill-rule="evenodd" clip-rule="evenodd" d="M7 2H18V14H7L7 2ZM15.5303 11.5303C15.2374 11.8232 14.7626 11.8232 14.4697 11.5303L12 9.06066L9.53033 11.5303C9.23744 11.8232 8.76256 11.8232 8.46967 11.5303C8.17678 11.2374 8.17678 10.7626 8.46967 10.4697L10.9393 8L8.46967 5.53033C8.17678 5.23744 8.17678 4.76256 8.46967 4.46967C8.76256 4.17678 9.23744 4.17678 9.53033 4.46967L12 6.93934L14.4697 4.46967C14.7626 4.17678 15.2374 4.17678 15.5303 4.46967C15.8232 4.76256 15.8232 5.23744 15.5303 5.53033L13.0607 8L15.5303 10.4697C15.8232 10.7626 15.8232 11.2374 15.5303 11.5303Z" fill="#595959"/>
<line x1="19" y1="1" x2="7" y2="1" stroke="#595959" stroke-width="2" stroke-linecap="round"/>
<line x1="19" y1="15" x2="19" y2="1" stroke="#595959" stroke-width="2"/>
</svg>
