<svg width="20" height="16" viewBox="0 0 20 16" fill="none" xmlns="http://www.w3.org/2000/svg">
<path d="M6.75 12.7211L2.66144 8L6.75 3.27894L6.75 12.7211Z" fill="#E9E9E9" stroke="#E9E9E9"/>
<line x1="19" y1="15" x2="7" y2="15" stroke="#E9E9E9" stroke-width="2" stroke-linecap="round"/>
<path d="M7 15L1 8" stroke="#E9E9E9" stroke-width="2" stroke-linecap="round"/>
<path d="M7 1L1 8" stroke="#E9E9E9" stroke-width="2" stroke-linecap="round"/>
<mask id="path-5-inside-1_24_105" fill="white">
<path fill-rule="evenodd" clip-rule="evenodd" d="M7 2H18V14H7L7 2ZM15.5303 11.5303C15.2374 11.8232 14.7626 11.8232 14.4697 11.5303L12 9.06066L9.53033 11.5303C9.23744 11.8232 8.76256 11.8232 8.46967 11.5303C8.17678 11.2374 8.17678 10.7626 8.46967 10.4697L10.9393 8L8.46967 5.53033C8.17678 5.23744 8.17678 4.76256 8.46967 4.46967C8.76256 4.17678 9.23744 4.17678 9.53033 4.46967L12 6.93934L14.4697 4.46967C14.7626 4.17678 15.2374 4.17678 15.5303 4.46967C15.8232 4.76256 15.8232 5.23744 15.5303 5.53033L13.0607 8L15.5303 10.4697C15.8232 10.7626 15.8232 11.2374 15.5303 11.5303Z"/>
</mask>
<path fill-rule="evenodd" clip-rule="evenodd" d="M7 2H18V14H7L7 2ZM15.5303 11.5303C15.2374 11.8232 14.7626 11.8232 14.4697 11.5303L12 9.06066L9.53033 11.5303C9.23744 11.8232 8.76256 11.8232 8.46967 11.5303C8.17678 11.2374 8.17678 10.7626 8.46967 10.4697L10.9393 8L8.46967 5.53033C8.17678 5.23744 8.17678 4.76256 8.46967 4.46967C8.76256 4.17678 9.23744 4.17678 9.53033 4.46967L12 6.93934L14.4697 4.46967C14.7626 4.17678 15.2374 4.17678 15.5303 4.46967C15.8232 4.76256 15.8232 5.23744 15.5303 5.53033L13.0607 8L15.5303 10.4697C15.8232 10.7626 15.8232 11.2374 15.5303 11.5303Z" fill="#E9E9E9"/>
<path d="M18 2H19V1H18V2ZM7 2V1H6V2H7ZM18 14V15H19V14H18ZM7 14H6V15H7V14ZM14.4697 11.5303L13.7626 12.2374L13.7626 12.2374L14.4697 11.5303ZM15.5303 11.5303L14.8232 10.8232L14.8232 10.8232L15.5303 11.5303ZM12 9.06066L12.7071 8.35355L12 7.64645L11.2929 8.35355L12 9.06066ZM9.53033 11.5303L8.82322 10.8232L8.82322 10.8232L9.53033 11.5303ZM8.46967 11.5303L9.17678 10.8232L9.17678 10.8232L8.46967 11.5303ZM8.46967 10.4697L9.17678 11.1768L9.17678 11.1768L8.46967 10.4697ZM10.9393 8L11.6464 8.70711L12.3536 8L11.6464 7.29289L10.9393 8ZM8.46967 4.46967L7.76256 3.76256L7.76256 3.76256L8.46967 4.46967ZM9.53033 4.46967L10.2374 3.76256L10.2374 3.76256L9.53033 4.46967ZM12 6.93934L11.2929 7.64645L12 8.35355L12.7071 7.64645L12 6.93934ZM15.5303 4.46967L14.8232 5.17678L14.8232 5.17678L15.5303 4.46967ZM15.5303 5.53033L14.8232 4.82322L14.8232 4.82322L15.5303 5.53033ZM13.0607 8L12.3536 7.29289L11.6464 8L12.3536 8.70711L13.0607 8ZM18 1H7V3H18V1ZM19 14V2H17V14H19ZM7 15H18V13H7V15ZM6 2L6 14H8V2H6ZM13.7626 12.2374C14.446 12.9209 15.554 12.9209 16.2374 12.2374L14.8232 10.8232C14.9209 10.7256 15.0791 10.7256 15.1768 10.8232L13.7626 12.2374ZM11.2929 9.76777L13.7626 12.2374L15.1768 10.8232L12.7071 8.35355L11.2929 9.76777ZM10.2374 12.2374L12.7071 9.76777L11.2929 8.35355L8.82322 10.8232L10.2374 12.2374ZM7.76256 12.2374C8.44598 12.9209 9.55402 12.9209 10.2374 12.2374L8.82322 10.8232C8.92085 10.7256 9.07915 10.7256 9.17678 10.8232L7.76256 12.2374ZM7.76256 9.76256C7.07915 10.446 7.07915 11.554 7.76256 12.2374L9.17678 10.8232C9.27441 10.9209 9.27441 11.0791 9.17678 11.1768L7.76256 9.76256ZM10.2322 7.29289L7.76256 9.76256L9.17678 11.1768L11.6464 8.70711L10.2322 7.29289ZM7.76256 6.23744L10.2322 8.70711L11.6464 7.29289L9.17678 4.82322L7.76256 6.23744ZM7.76256 3.76256C7.07915 4.44598 7.07915 5.55402 7.76256 6.23744L9.17678 4.82322C9.27441 4.92085 9.27441 5.07915 9.17678 5.17678L7.76256 3.76256ZM10.2374 3.76256C9.55402 3.07915 8.44598 3.07915 7.76256 3.76256L9.17678 5.17678C9.07914 5.27441 8.92085 5.27441 8.82322 5.17678L10.2374 3.76256ZM12.7071 6.23223L10.2374 3.76256L8.82322 5.17678L11.2929 7.64645L12.7071 6.23223ZM13.7626 3.76256L11.2929 6.23223L12.7071 7.64645L15.1768 5.17678L13.7626 3.76256ZM16.2374 3.76256C15.554 3.07914 14.446 3.07915 13.7626 3.76256L15.1768 5.17678C15.0791 5.27441 14.9209 5.27441 14.8232 5.17678L16.2374 3.76256ZM16.2374 6.23744C16.9209 5.55402 16.9209 4.44598 16.2374 3.76256L14.8232 5.17678C14.7256 5.07915 14.7256 4.92085 14.8232 4.82322L16.2374 6.23744ZM13.7678 8.70711L16.2374 6.23744L14.8232 4.82322L12.3536 7.29289L13.7678 8.70711ZM16.2374 9.76256L13.7678 7.29289L12.3536 8.70711L14.8232 11.1768L16.2374 9.76256ZM16.2374 12.2374C16.9209 11.554 16.9209 10.446 16.2374 9.76256L14.8232 11.1768C14.7256 11.0791 14.7256 10.9209 14.8232 10.8232L16.2374 12.2374Z" fill="#E9E9E9" mask="url(#path-5-inside-1_24_105)"/>
<line x1="19" y1="1" x2="7" y2="1" stroke="#E9E9E9" stroke-width="2" stroke-linecap="round"/>
<line x1="19" y1="15" x2="19" y2="1" stroke="#E9E9E9" stroke-width="2"/>
</svg>
