<svg width="50" height="50" viewBox="0 0 50 50" fill="none" xmlns="http://www.w3.org/2000/svg">
<path fill-rule="evenodd" clip-rule="evenodd" d="M35.7236 36.5894C34.8058 36.7554 33.8604 36.8421 32.8947 36.8421C24.1744 36.8421 17.1052 29.7729 17.1052 21.0526C17.1052 16.4722 19.0556 12.3474 22.1711 9.46323C14.8008 10.7964 9.21051 17.2454 9.21051 25C9.21051 33.7203 16.2797 40.7895 25 40.7895C29.1399 40.7895 32.9077 39.1962 35.7236 36.5894Z" fill="black" fill-opacity="0.6"/>
<path d="M23.6939 17.4245L23.7138 17.4146C24.9597 16.7978 25.8925 15.6902 26.2883 14.3575L26.6447 13.1579L27.0138 14.3762C27.4141 15.6977 28.3431 16.7948 29.5806 17.4075L29.6149 17.4245L29.5522 17.4561C28.3318 18.0723 27.4169 19.1614 27.0206 20.4699L26.6447 21.7105L26.2817 20.4885C25.8897 19.1689 24.9711 18.0694 23.7423 17.4489L23.6939 17.4245Z" fill="black" fill-opacity="0.6"/>
<path d="M28.8647 24.878V24.878C29.411 24.6076 29.8199 24.122 29.9935 23.5377L30.1454 23.0263L30.3008 23.5392C30.4776 24.1228 30.8879 24.6074 31.4345 24.878V24.878V24.878C30.8874 25.1542 30.4774 25.6424 30.2997 26.2289L30.1454 26.7382L29.9946 26.2304C29.8202 25.6433 29.4114 25.1541 28.8647 24.878V24.878Z" fill="black" fill-opacity="0.6"/>
</svg>
