<svg width="370" height="314" viewBox="0 0 370 314" fill="none" xmlns="http://www.w3.org/2000/svg">
<path d="M0 0H370V263.412C370 291.026 347.614 313.412 320 313.412H50C22.3858 313.412 0 291.026 0 263.412V0Z" fill="#323232"/>
<rect x="6" y="52" width="33" height="40" rx="5" fill="#6E6E6E"/>
<rect x="42" y="52" width="33" height="40" rx="5" fill="#6E6E6E"/>
<rect x="78" y="52" width="33" height="40" rx="5" fill="#6E6E6E"/>
<rect x="114" y="52" width="33" height="40" rx="5" fill="#6E6E6E"/>
<rect x="150" y="52" width="33" height="40" rx="5" fill="#6E6E6E"/>
<rect x="186" y="52" width="33" height="40" rx="5" fill="#6E6E6E"/>
<rect x="222" y="52" width="33" height="40" rx="5" fill="#6E6E6E"/>
<rect x="258" y="52" width="33" height="40" rx="5" fill="#6E6E6E"/>
<rect x="294" y="52" width="33" height="40" rx="5" fill="#6E6E6E"/>
<rect x="330" y="52" width="33" height="40" rx="5" fill="#6E6E6E"/>
<rect x="24" y="103" width="33" height="40" rx="5" fill="#6E6E6E"/>
<rect x="60" y="103" width="33" height="40" rx="5" fill="#6E6E6E"/>
<rect x="96" y="103" width="33" height="40" rx="5" fill="#6E6E6E"/>
<rect x="132" y="103" width="33" height="40" rx="5" fill="#6E6E6E"/>
<rect x="168" y="103" width="33" height="40" rx="5" fill="#6E6E6E"/>
<rect x="204" y="103" width="33" height="40" rx="5" fill="#6E6E6E"/>
<rect x="240" y="103" width="33" height="40" rx="5" fill="#6E6E6E"/>
<rect x="276" y="103" width="33" height="40" rx="5" fill="#6E6E6E"/>
<rect x="312" y="103" width="33" height="40" rx="5" fill="#6E6E6E"/>
<rect x="60" y="153" width="33" height="40" rx="5" fill="#6E6E6E"/>
<rect x="96" y="153" width="33" height="40" rx="5" fill="#6E6E6E"/>
<rect x="132" y="153" width="33" height="40" rx="5" fill="#6E6E6E"/>
<rect x="168" y="153" width="33" height="40" rx="5" fill="#6E6E6E"/>
<rect x="204" y="153" width="33" height="40" rx="5" fill="#6E6E6E"/>
<rect x="240" y="153" width="33" height="40" rx="5" fill="#6E6E6E"/>
<rect x="276" y="153" width="33" height="40" rx="5" fill="#6E6E6E"/>
<rect x="324" y="153" width="39.1264" height="40.0471" rx="5" fill="#6E6E6E"/>
<rect x="278.138" y="203.718" width="85.0575" height="40.0471" rx="5" fill="#6E6E6E"/>
<rect x="5.95404" y="203.718" width="85.0575" height="40.0471" rx="5" fill="#6E6E6E"/>
<rect x="95" y="204" width="179" height="40" rx="5" fill="#6E6E6E"/>
<rect x="5.95404" y="153.224" width="39.1264" height="40.0471" rx="5" fill="#6E6E6E"/>
<path d="M123.759 12.1882V38.3059" stroke="#6E6E6E" stroke-width="3" stroke-linecap="round"/>
<path d="M244.966 12.1882V38.3059" stroke="#6E6E6E" stroke-width="3" stroke-linecap="round"/>
</svg>
