<svg width="380" height="658" viewBox="0 0 380 658" fill="none" xmlns="http://www.w3.org/2000/svg">
<rect x="2.5" y="2.5" width="375" height="653" rx="52.5" fill="#F5F5F5"/>
<rect x="2.5" y="2.5" width="375" height="653" rx="52.5" stroke="#C5B99E" stroke-width="5"/>
<rect x="2.5" y="2.5" width="375" height="653" rx="52.5" stroke="url(#paint0_linear_6_3)" stroke-width="5"/>
<rect x="2.5" y="2.5" width="375" height="653" rx="52.5" stroke="url(#paint1_linear_6_3)" stroke-width="5"/>
<rect x="2.5" y="2.5" width="375" height="653" rx="52.5" stroke="url(#paint2_linear_6_3)" stroke-width="5"/>
<rect x="2.5" y="2.5" width="375" height="653" rx="52.5" stroke="url(#paint3_linear_6_3)" stroke-width="5"/>
<rect x="2.5" y="2.5" width="375" height="653" rx="52.5" stroke="url(#paint4_linear_6_3)" stroke-width="5"/>
<rect x="125.5" y="39.5" width="129" height="30" rx="15" fill="#C5B99E"/>
<rect x="125.5" y="39.5" width="129" height="30" rx="15" fill="url(#paint5_linear_6_3)"/>
<rect x="125.5" y="39.5" width="129" height="30" rx="15" fill="url(#paint6_linear_6_3)"/>
<rect x="125.5" y="39.5" width="129" height="30" rx="15" fill="url(#paint7_linear_6_3)"/>
<rect x="125.5" y="39.5" width="129" height="30" rx="15" fill="url(#paint8_linear_6_3)"/>
<rect x="125.5" y="39.5" width="129" height="30" rx="15" fill="url(#paint9_linear_6_3)"/>
<rect x="125.5" y="39.5" width="129" height="30" rx="15" stroke="#C5B99E" stroke-width="5"/>
<rect x="125.5" y="39.5" width="129" height="30" rx="15" stroke="url(#paint10_linear_6_3)" stroke-width="5"/>
<rect x="125.5" y="39.5" width="129" height="30" rx="15" stroke="url(#paint11_linear_6_3)" stroke-width="5"/>
<rect x="125.5" y="39.5" width="129" height="30" rx="15" stroke="url(#paint12_linear_6_3)" stroke-width="5"/>
<rect x="125.5" y="39.5" width="129" height="30" rx="15" stroke="url(#paint13_linear_6_3)" stroke-width="5"/>
<rect x="125.5" y="39.5" width="129" height="30" rx="15" stroke="url(#paint14_linear_6_3)" stroke-width="5"/>
<defs>
<linearGradient id="paint0_linear_6_3" x1="375" y1="653" x2="5.6805" y2="4.61239" gradientUnits="userSpaceOnUse">
<stop stop-color="#FFF361" stop-opacity="0"/>
<stop offset="1" stop-color="#EAFD58" stop-opacity="0.65"/>
</linearGradient>
<linearGradient id="paint1_linear_6_3" x1="375" y1="329" x2="5.00002" y2="329" gradientUnits="userSpaceOnUse">
<stop stop-color="#6D1F45" stop-opacity="0.35"/>
<stop offset="1" stop-color="#B5B0B1" stop-opacity="0"/>
</linearGradient>
<linearGradient id="paint2_linear_6_3" x1="375" y1="653" x2="5.6805" y2="4.61239" gradientUnits="userSpaceOnUse">
<stop stop-color="#CC6877" stop-opacity="0.65"/>
<stop offset="1" stop-color="#CC6877" stop-opacity="0"/>
</linearGradient>
<linearGradient id="paint3_linear_6_3" x1="375" y1="5" x2="5.68051" y2="653.388" gradientUnits="userSpaceOnUse">
<stop stop-color="#8A2387" stop-opacity="0.35"/>
<stop offset="1" stop-color="#8A2387" stop-opacity="0"/>
</linearGradient>
<linearGradient id="paint4_linear_6_3" x1="190" y1="653" x2="190" y2="5" gradientUnits="userSpaceOnUse">
<stop stop-color="#FE2B00" stop-opacity="0.65"/>
<stop offset="1" stop-color="#FE2B00" stop-opacity="0"/>
</linearGradient>
<linearGradient id="paint5_linear_6_3" x1="257" y1="72" x2="253.088" y2="25.9492" gradientUnits="userSpaceOnUse">
<stop stop-color="#FFF361" stop-opacity="0"/>
<stop offset="1" stop-color="#EAFD58" stop-opacity="0.65"/>
</linearGradient>
<linearGradient id="paint6_linear_6_3" x1="257" y1="54.5" x2="123" y2="54.4999" gradientUnits="userSpaceOnUse">
<stop stop-color="#6D1F45" stop-opacity="0.35"/>
<stop offset="1" stop-color="#B5B0B1" stop-opacity="0"/>
</linearGradient>
<linearGradient id="paint7_linear_6_3" x1="257" y1="72" x2="253.088" y2="25.9492" gradientUnits="userSpaceOnUse">
<stop stop-color="#CC6877" stop-opacity="0.65"/>
<stop offset="1" stop-color="#CC6877" stop-opacity="0"/>
</linearGradient>
<linearGradient id="paint8_linear_6_3" x1="257" y1="37" x2="253.088" y2="83.0508" gradientUnits="userSpaceOnUse">
<stop stop-color="#8A2387" stop-opacity="0.35"/>
<stop offset="1" stop-color="#8A2387" stop-opacity="0"/>
</linearGradient>
<linearGradient id="paint9_linear_6_3" x1="190" y1="72" x2="190" y2="37" gradientUnits="userSpaceOnUse">
<stop stop-color="#FE2B00" stop-opacity="0.65"/>
<stop offset="1" stop-color="#FE2B00" stop-opacity="0"/>
</linearGradient>
<linearGradient id="paint10_linear_6_3" x1="257" y1="72" x2="253.088" y2="25.9492" gradientUnits="userSpaceOnUse">
<stop stop-color="#FFF361" stop-opacity="0"/>
<stop offset="1" stop-color="#EAFD58" stop-opacity="0.65"/>
</linearGradient>
<linearGradient id="paint11_linear_6_3" x1="257" y1="54.5" x2="123" y2="54.4999" gradientUnits="userSpaceOnUse">
<stop stop-color="#6D1F45" stop-opacity="0.35"/>
<stop offset="1" stop-color="#B5B0B1" stop-opacity="0"/>
</linearGradient>
<linearGradient id="paint12_linear_6_3" x1="257" y1="72" x2="253.088" y2="25.9492" gradientUnits="userSpaceOnUse">
<stop stop-color="#CC6877" stop-opacity="0.65"/>
<stop offset="1" stop-color="#CC6877" stop-opacity="0"/>
</linearGradient>
<linearGradient id="paint13_linear_6_3" x1="257" y1="37" x2="253.088" y2="83.0508" gradientUnits="userSpaceOnUse">
<stop stop-color="#8A2387" stop-opacity="0.35"/>
<stop offset="1" stop-color="#8A2387" stop-opacity="0"/>
</linearGradient>
<linearGradient id="paint14_linear_6_3" x1="190" y1="72" x2="190" y2="37" gradientUnits="userSpaceOnUse">
<stop stop-color="#FE2B00" stop-opacity="0.65"/>
<stop offset="1" stop-color="#FE2B00" stop-opacity="0"/>
</linearGradient>
</defs>
</svg>
