<svg width="50" height="50" viewBox="0 0 50 50" fill="none" xmlns="http://www.w3.org/2000/svg">
<path d="M1.92676 43L15.6719 7.20898H20.7744L35.4229 43H30.0273L25.8525 32.1602H10.8867L6.95605 43H1.92676ZM12.2539 28.3027H24.3877L20.6523 18.3906C19.513 15.3796 18.6667 12.9056 18.1133 10.9688C17.6576 13.2637 17.0146 15.5423 16.1846 17.8047L12.2539 28.3027Z" fill="black" fill-opacity="0.6"/>
<path fill-rule="evenodd" clip-rule="evenodd" d="M24.3362 34.1602L20.9414 43H24.9648L26.3805 39.0959L24.4796 34.1602H24.3362ZM34.0347 34.3281H40.082L43.4219 43H47.7383L36.0195 14.3672H31.9375L28.9979 22.0216L30.908 26.6887L32.3477 22.8438C33.0117 21.0339 33.526 19.2109 33.8906 17.375C34.3333 18.9245 35.0104 20.9036 35.9219 23.3125L38.9102 31.2422H32.7717L34.0347 34.3281Z" fill="black" fill-opacity="0.6"/>
</svg>
