<svg width="50" height="50" viewBox="0 0 50 50" fill="none" xmlns="http://www.w3.org/2000/svg">
<path d="M24.876 31.916H12.0586L9.8125 37.1406C9.25911 38.4264 8.98242 39.3867 8.98242 40.0215C8.98242 40.526 9.21842 40.9736 9.69043 41.3643C10.1787 41.7386 11.2204 41.9827 12.8154 42.0967V43H2.39062V42.0967C3.77409 41.8525 4.66927 41.5352 5.07617 41.1445C5.90625 40.3633 6.82585 38.7764 7.83496 36.3838L19.4805 9.1377H20.335L31.8584 36.6768C32.7861 38.8903 33.6243 40.3307 34.373 40.998C35.138 41.6491 36.196 42.0153 37.5469 42.0967V43H24.4854V42.0967C25.8037 42.0316 26.6908 41.8118 27.1465 41.4375C27.6185 41.0632 27.8545 40.6074 27.8545 40.0703C27.8545 39.3542 27.529 38.223 26.8779 36.6768L24.876 31.916ZM24.1924 30.1094L18.5771 16.7305L12.8154 30.1094H24.1924Z" fill="black" fill-opacity="0.6"/>
<path fill-rule="evenodd" clip-rule="evenodd" d="M31.0242 29.502L30.1094 27.3157L34.9844 15.9102H35.668L44.8867 37.9414C45.6289 39.7122 46.2995 40.8646 46.8984 41.3984C47.5104 41.9193 48.3568 42.2122 49.4375 42.2773V43H39.5469V42.2348C40.2978 42.1547 40.8212 41.9931 41.1172 41.75C41.4948 41.4505 41.6836 41.0859 41.6836 40.6562C41.6836 40.0833 41.4232 39.1784 40.9023 37.9414L39.3008 34.1328H32.9619L32.3572 32.6875H38.7539L34.2617 21.9844L31.0242 29.502ZM22.4854 43V42.0967V42.0049C22.1612 42.1058 21.7703 42.1966 21.3125 42.2773V43H22.4854ZM24.5122 40.0923C25.0284 40.0615 25.4023 40.0052 25.6585 39.9417C25.7375 39.9222 25.7966 39.904 25.839 39.8894C25.7988 39.608 25.6737 39.111 25.3901 38.3467C25.0869 39.0233 24.7943 39.6052 24.5122 40.0923Z" fill="black" fill-opacity="0.6"/>
</svg>
