<svg width="50" height="50" viewBox="0 0 50 50" fill="none" xmlns="http://www.w3.org/2000/svg">
<path d="M34.4 43.04L21.4 9.04H17.12L4.16 43.04H10.52L11.8 37.6H26.64L28.36 43.04H34.4ZM25.32 32.36H13.2L19.32 14.56L25.32 32.36Z" fill="black" fill-opacity="0.6"/>
<path fill-rule="evenodd" clip-rule="evenodd" d="M30.0688 26.1121C31.1167 25.4652 32.1445 25.2461 32.872 25.144C35.4 24.792 37.16 25.496 38.312 27.352L38.248 25.496H40.52L42.344 43H39.144V40.376C38.5035 41.4716 37.5611 42.2653 36.4385 42.7712L36.2681 42.3257L34.7459 38.3444C37.8963 37.5168 38.056 34.7558 38.056 33.432C38.056 28.568 35.688 27.832 33.544 27.832C32.7978 27.832 31.9073 28.1094 31.0782 28.7521L30.0688 26.1121Z" fill="black" fill-opacity="0.6"/>
</svg>
